<svg xmlns="http://www.w3.org/2000/svg" id="Layer_1" data-name="Layer 1" viewBox="158.23 414.68 763.54 250.64">
  <defs>
    <style>
      .cls-1 {
        fill: red;
      }
    </style>
  </defs>
  <g>
    <g>
      <path d="M326.78,498h-139.25v.35l11.19,6.65v20.29l106.77.17-18.6,26.41h-99.36v.35l11.19,6.65v22.91h74.64l-8.3,26.59h-106.83v-136.95h202.2"/>
      <path d="M803.28,471.68c-57.69,23.72-102.12,76.24-117.09,136.62h56.65c.58-11.37,3.24-22.81,8.17-33.01h.02c.1-.19.21-.38.34-.55.16-.34.35-.66.6-.94,5.44-12.08,14.93-28.81,31.38-44.34,6.87-6.48,13.7-11.59,19.94-15.6,6.4,3.84,13.49,8.83,20.61,15.28,17.62,15.96,27.42,33.57,32.8,45.76-.02,0-.04,0-.07,0,0,.01,0,.03.01.05.15.29.27.59.36.91h.07c4.08,10.3,7.11,21.33,7.52,32.45h56.65c-14.81-60.3-59.85-114.01-117.95-136.62ZM848.72,522.22l-7.49-1.7-6.09,4.68-.69-7.65-6.33-4.35,7.06-3.02,2.18-7.36,5.06,5.78,7.68-.21-3.94,6.59,2.57,7.24ZM863.69,557.68l-.69-7.65-6.33-4.35,7.06-3.02,2.18-7.36,5.06,5.78,7.68-.21-3.94,6.59,2.57,7.24-7.49-1.7-6.09,4.68ZM888.42,588.32l-6.09,4.68-.69-7.65-6.33-4.35,7.06-3.02,2.18-7.36,5.06,5.78,7.68-.21-3.94,6.59,2.57,7.24-7.49-1.7Z"/>
      <path d="M526.41,608.64h-56.64c-.41-11.11-3.44-24.15-7.52-34.45l-106.05-.56c-4.92,10.21-7.58,23.64-8.16,35.01h-56.64c14.97-60.37,59.4-112.9,117.08-136.61,58.09,22.61,103.13,76.32,117.94,136.61ZM446.1,544.61c-3.37-4.91-8.56-11.35-16.11-17.55-8.02-6.58-15.83-10.51-21.52-12.86-5.52,2.18-13.44,6.05-21.48,12.86-7.37,6.24-12.24,12.75-15.28,17.55h74.39Z"/>
      <path d="M717.78,498h-139.25v.35l11.19,6.65v20.29l106.77.17-18.6,26.41h-99.36v.35l10.46,6.84v49.31h-39.75v-136.95h202.2"/>
    </g>
    <g>
      <path d="M181.91,628.23l7.52,37.09h-10.88l-.99-6.28c-.1-.66-.03-1.11.22-1.36.25-.25.6-.37,1.06-.37h-9.15c.46,0,.82.12,1.06.37.25.25.32.7.22,1.36l-.99,6.28h-10.88l7.52-37.09h15.28ZM177.55,651.62c-.43,0-.72-.14-.87-.42-.15-.28-.29-.72-.42-1.31l-2.03-9.54-2.03,9.54c-.13.59-.26,1.03-.4,1.31-.13.28-.43.42-.89.42h6.63Z"/>
      <path d="M205.25,628.23l6.63,17.36,6.58-17.36h11.87v37.09h-10.88v-16.32l-4.6,11.97h-5.98l-4.6-11.97v16.32h-10.88v-37.09h11.87Z"/>
      <path d="M261.62,634.66h-15.77c.46,0,.79.12.99.37.2.25.3.7.3,1.36v1.83c0,1.15-.43,1.73-1.29,1.73h12.86v5.69h-12.86c.46,0,.79.12.99.37.2.25.3.7.3,1.36v9.79c0,1.15-.43,1.73-1.29,1.73h15.77v6.43h-25.37v-37.09h25.37v6.43Z"/>
      <path d="M284.91,665.32l-5.64-18.99h-1.33v18.99h-10.88v-37.09h19.83c2.57,0,4.63.77,6.18,2.32,1.55,1.55,2.32,3.61,2.32,6.18v1.09c0,2.08-.53,3.83-1.58,5.27-1.06,1.43-2.47,2.4-4.25,2.89l6.33,19.33h-10.98ZM276.65,634.66c.46,0,.79.12.99.37.2.25.3.7.3,1.36v1.78c0,1.15-.43,1.73-1.29,1.73h5.88c.66,0,1.15-.23,1.48-.69.33-.46.5-1.09.5-1.88v-.35c0-1.55-.66-2.32-1.98-2.32h-5.88Z"/>
      <path d="M310.72,628.23v37.09h-10.88v-37.09h10.88Z"/>
      <path d="M334.75,628.23c2.57,0,4.63.77,6.18,2.32,1.55,1.55,2.32,3.61,2.32,6.18v2.37h-10.88v-2.13c0-1.55-.66-2.32-1.98-2.32h-4.9c.46,0,.79.12.99.37.2.25.3.7.3,1.36v20.77c0,1.15-.43,1.73-1.29,1.73h4.9c.66,0,1.15-.23,1.48-.69.33-.46.49-1.09.49-1.88v-2.57h10.88v3.07c0,2.57-.77,4.63-2.32,6.18-1.55,1.55-3.61,2.32-6.18,2.32h-10.43c-1.25,0-2.4-.22-3.44-.67-1.04-.45-1.93-1.06-2.67-1.85-.74-.79-1.31-1.75-1.71-2.87-.4-1.12-.59-2.36-.59-3.71v-18.89c0-1.35.2-2.59.59-3.71.4-1.12.96-2.08,1.71-2.87.74-.79,1.63-1.41,2.67-1.85,1.04-.44,2.18-.67,3.44-.67h10.43Z"/>
      <path d="M368.28,628.23l7.52,37.09h-10.88l-.99-6.28c-.1-.66-.03-1.11.22-1.36.25-.25.6-.37,1.06-.37h-9.15c.46,0,.82.12,1.06.37.25.25.32.7.22,1.36l-.99,6.28h-10.88l7.52-37.09h15.28ZM363.93,651.62c-.43,0-.72-.14-.87-.42-.15-.28-.29-.72-.42-1.31l-2.03-9.54-2.03,9.54c-.13.59-.26,1.03-.4,1.31-.13.28-.43.42-.89.42h6.63Z"/>
      <path d="M390.63,628.23l6.58,17.31v-17.31h10.88v37.09h-10.88l-6.58-17.31v17.31h-10.88v-37.09h10.88Z"/>
      <path d="M451.75,634.66h-15.77c.46,0,.79.12.99.37.2.25.3.7.3,1.36v1.83c0,1.15-.43,1.73-1.29,1.73h12.86v5.69h-12.86c.46,0,.79.12.99.37.2.25.3.7.3,1.36v17.95h-10.88v-37.09h25.37v6.43Z"/>
      <path d="M475.14,628.23c1.25,0,2.4.22,3.44.67,1.04.45,1.93,1.06,2.67,1.85.74.79,1.31,1.75,1.71,2.87.4,1.12.59,2.36.59,3.71v18.89c0,1.35-.2,2.59-.59,3.71-.4,1.12-.96,2.08-1.71,2.87-.74.79-1.63,1.41-2.67,1.85-1.04.44-2.18.67-3.44.67h-11.77c-1.25,0-2.4-.22-3.44-.67-1.04-.45-1.93-1.06-2.67-1.85-.74-.79-1.31-1.75-1.71-2.87-.4-1.12-.59-2.36-.59-3.71v-18.89c0-1.35.2-2.59.59-3.71.4-1.12.96-2.08,1.71-2.87.74-.79,1.63-1.41,2.67-1.85,1.04-.44,2.18-.67,3.44-.67h11.77ZM473.95,658.89c-.86,0-1.29-.58-1.29-1.73v-20.77c0-.66.11-1.11.32-1.36.21-.25.54-.37.96-.37h-9.4c.46,0,.79.12.99.37.2.25.3.7.3,1.36v20.77c0,1.15-.43,1.73-1.29,1.73h9.4Z"/>
      <path d="M508.17,628.23c1.25,0,2.4.22,3.44.67,1.04.45,1.93,1.06,2.67,1.85.74.79,1.31,1.75,1.71,2.87.4,1.12.59,2.36.59,3.71v18.89c0,1.35-.2,2.59-.59,3.71-.4,1.12-.96,2.08-1.71,2.87-.74.79-1.63,1.41-2.67,1.85-1.04.44-2.18.67-3.44.67h-11.77c-1.25,0-2.4-.22-3.44-.67-1.04-.45-1.93-1.06-2.67-1.85-.74-.79-1.31-1.75-1.71-2.87-.4-1.12-.59-2.36-.59-3.71v-18.89c0-1.35.2-2.59.59-3.71.4-1.12.96-2.08,1.71-2.87.74-.79,1.63-1.41,2.67-1.85,1.04-.44,2.18-.67,3.44-.67h11.77ZM506.98,658.89c-.86,0-1.29-.58-1.29-1.73v-20.77c0-.66.11-1.11.32-1.36.21-.25.54-.37.96-.37h-9.4c.46,0,.79.12.99.37.2.25.3.7.3,1.36v20.77c0,1.15-.43,1.73-1.29,1.73h9.4Z"/>
      <path d="M549.51,634.66h-10.68c.46,0,.79.12.99.37.2.25.3.7.3,1.36v28.93h-10.88v-28.93c0-.66.1-1.11.3-1.36.2-.25.53-.37.99-.37h-10.73v-6.43h29.72v6.43Z"/>
      <path d="M581.8,656.81c0,2.57-.78,4.63-2.32,6.18-1.55,1.55-3.61,2.32-6.18,2.32h-19.83v-37.09h19.83c2.57,0,4.63.77,6.18,2.32,1.55,1.55,2.32,3.61,2.32,6.18v1.09c0,2.34-.63,4.24-1.88,5.69.63.53,1.1,1.22,1.41,2.08.31.86.47,1.95.47,3.26v7.96ZM563.06,634.66c.46,0,.79.12.99.37.2.25.3.7.3,1.36v1.78c0,1.15-.43,1.73-1.29,1.73h5.88c.66,0,1.15-.23,1.48-.69.33-.46.5-1.09.5-1.88v-.35c0-1.55-.66-2.32-1.98-2.32h-5.88ZM563.06,646.33c.46,0,.79.12.99.37.2.25.3.7.3,1.36v9.1c0,1.15-.43,1.73-1.29,1.73h5.88c.66,0,1.15-.23,1.48-.69.33-.46.5-1.09.5-1.88v-7.66c0-1.55-.66-2.32-1.98-2.32h-5.88Z"/>
      <path d="M607.81,628.23l7.52,37.09h-10.88l-.99-6.28c-.1-.66-.03-1.11.22-1.36.25-.25.6-.37,1.06-.37h-9.15c.46,0,.82.12,1.06.37.25.25.32.7.22,1.36l-.99,6.28h-10.88l7.52-37.09h15.28ZM603.46,651.62c-.43,0-.72-.14-.87-.42-.15-.28-.29-.72-.42-1.31l-2.03-9.54-2.03,9.54c-.13.59-.26,1.03-.4,1.31-.13.28-.43.42-.89.42h6.63Z"/>
      <path d="M619.28,665.32v-37.09h10.88v28.93c0,.66-.1,1.11-.3,1.36-.2.25-.53.37-.99.37h15.77v6.43h-25.37Z"/>
      <path d="M648.61,665.32v-37.09h10.88v28.93c0,.66-.1,1.11-.3,1.36-.2.25-.53.37-.99.37h15.77v6.43h-25.37Z"/>
      <path d="M711.11,628.23l7.52,37.09h-10.88l-.99-6.28c-.1-.66-.03-1.11.22-1.36.25-.25.6-.37,1.06-.37h-9.15c.46,0,.82.12,1.06.37.25.25.32.7.22,1.36l-.99,6.28h-10.88l7.52-37.09h15.28ZM706.76,651.62c-.43,0-.72-.14-.87-.42-.15-.28-.29-.72-.42-1.31l-2.03-9.54-2.03,9.54c-.13.59-.26,1.03-.4,1.31-.13.28-.43.42-.89.42h6.63Z"/>
      <path d="M722.58,665.32v-37.09h10.88v28.93c0,.66-.1,1.11-.3,1.36-.2.25-.53.37-.99.37h15.77v6.43h-25.37Z"/>
      <path d="M751.91,665.32v-37.09h10.88v28.93c0,.66-.1,1.11-.3,1.36-.2.25-.53.37-.99.37h15.77v6.43h-25.37Z"/>
      <path d="M792.11,628.23v37.09h-10.88v-37.09h10.88Z"/>
      <path d="M818.86,628.23l7.52,37.09h-10.88l-.99-6.28c-.1-.66-.03-1.11.22-1.36.25-.25.6-.37,1.06-.37h-9.15c.46,0,.82.12,1.06.37.25.25.32.7.22,1.36l-.99,6.28h-10.88l7.52-37.09h15.28ZM814.51,651.62c-.43,0-.72-.14-.87-.42-.15-.28-.29-.72-.42-1.31l-2.03-9.54-2.03,9.54c-.13.59-.26,1.03-.4,1.31-.13.28-.43.42-.89.42h6.63Z"/>
      <path d="M841.21,628.23l6.58,17.31v-17.31h10.88v37.09h-10.88l-6.58-17.31v17.31h-10.88v-37.09h10.88Z"/>
      <path d="M882.7,628.23c2.57,0,4.63.77,6.18,2.32,1.55,1.55,2.32,3.61,2.32,6.18v2.37h-10.88v-2.13c0-1.55-.66-2.32-1.98-2.32h-4.9c.46,0,.79.12.99.37.2.25.3.7.3,1.36v20.77c0,1.15-.43,1.73-1.29,1.73h4.9c.66,0,1.15-.23,1.48-.69.33-.46.49-1.09.49-1.88v-2.57h10.88v3.07c0,2.57-.77,4.63-2.32,6.18-1.55,1.55-3.61,2.32-6.18,2.32h-10.43c-1.25,0-2.4-.22-3.44-.67-1.04-.45-1.93-1.06-2.67-1.85-.74-.79-1.31-1.75-1.71-2.87-.4-1.12-.59-2.36-.59-3.71v-18.89c0-1.35.2-2.59.59-3.71.4-1.12.96-2.08,1.71-2.87.74-.79,1.63-1.41,2.67-1.85,1.04-.44,2.18-.67,3.44-.67h10.43Z"/>
      <path d="M921.77,634.66h-15.77c.46,0,.79.12.99.37.2.25.3.7.3,1.36v1.83c0,1.15-.43,1.73-1.29,1.73h12.86v5.69h-12.86c.46,0,.79.12.99.37.2.25.3.7.3,1.36v9.79c0,1.15-.43,1.73-1.29,1.73h15.77v6.43h-25.37v-37.09h25.37v6.43Z"/>
    </g>
    <g>
      <path d="M186.08,421.81h-15.77c.46,0,.79.12.99.37.2.25.3.7.3,1.36v1.83c0,1.15-.43,1.73-1.29,1.73h12.86v5.69h-12.86c.46,0,.79.12.99.37.2.25.3.7.3,1.36v9.79c0,1.15-.43,1.73-1.29,1.73h15.77v6.43h-25.37v-37.09h25.37v6.43Z"/>
      <path d="M203.39,415.38l6.63,17.36,6.58-17.36h11.87v37.09h-10.88v-16.32l-4.6,11.97h-5.98l-4.6-11.97v16.32h-10.88v-37.09h11.87Z"/>
      <path d="M245.27,415.38v37.09h-10.88v-37.09h10.88Z"/>
      <path d="M269.06,452.46l-5.64-18.99h-1.33v18.99h-10.88v-37.09h19.83c2.57,0,4.63.77,6.18,2.32,1.55,1.55,2.32,3.61,2.32,6.18v1.09c0,2.08-.53,3.83-1.58,5.27-1.06,1.43-2.47,2.4-4.25,2.89l6.33,19.33h-10.98ZM260.8,421.81c.46,0,.79.12.99.37.2.25.3.7.3,1.36v1.78c0,1.15-.43,1.73-1.29,1.73h5.88c.66,0,1.15-.23,1.48-.69.33-.46.5-1.09.5-1.88v-.35c0-1.55-.66-2.32-1.98-2.32h-5.88Z"/>
      <path d="M304.81,415.38l7.52,37.09h-10.88l-.99-6.28c-.1-.66-.03-1.11.22-1.36.25-.25.6-.37,1.06-.37h-9.15c.46,0,.82.12,1.06.37.25.25.32.7.22,1.36l-.99,6.28h-10.88l7.52-37.09h15.28ZM300.46,438.77c-.43,0-.72-.14-.87-.42-.15-.28-.29-.72-.42-1.31l-2.03-9.54-2.03,9.54c-.13.59-.26,1.03-.4,1.31-.13.28-.43.42-.89.42h6.63Z"/>
      <path d="M340.07,421.81h-10.68c.46,0,.79.12.99.37.2.25.3.7.3,1.36v28.93h-10.88v-28.93c0-.66.1-1.11.3-1.36.2-.25.53-.37.99-.37h-10.73v-6.43h29.72v6.43Z"/>
      <path d="M369.39,421.81h-15.77c.46,0,.79.12.99.37.2.25.3.7.3,1.36v1.83c0,1.15-.43,1.73-1.29,1.73h12.86v5.69h-12.86c.46,0,.79.12.99.37.2.25.3.7.3,1.36v9.79c0,1.15-.43,1.73-1.29,1.73h15.77v6.43h-25.37v-37.09h25.37v6.43Z"/>
      <path d="M372.61,442.92h10.88v1.38c0,1.15-.43,1.73-1.29,1.73h5.88c.66,0,1.15-.23,1.48-.69.33-.46.49-1.09.49-1.88v-.99c0-.96-.43-1.8-1.29-2.52-.86-.72-1.94-1.43-3.24-2.1-1.3-.68-2.7-1.37-4.2-2.08-1.5-.71-2.9-1.52-4.2-2.42-1.3-.91-2.38-1.95-3.24-3.14-.86-1.19-1.29-2.6-1.29-4.25v-1.48c0-1.35.2-2.59.59-3.71.4-1.12.96-2.08,1.71-2.87.74-.79,1.63-1.41,2.67-1.85,1.04-.44,2.18-.67,3.44-.67h11.42c2.57,0,4.63.77,6.18,2.32,1.55,1.55,2.32,3.61,2.32,6.18v2.72h-10.88v-2.47c0-1.55-.66-2.32-1.98-2.32h-5.88c.46,0,.79.12.99.37.2.25.3.7.3,1.36v.99c0,.96.43,1.83,1.29,2.62.86.79,1.94,1.57,3.24,2.35,1.3.77,2.7,1.58,4.2,2.42,1.5.84,2.9,1.76,4.2,2.77,1.3,1.01,2.38,2.14,3.24,3.41.86,1.27,1.29,2.73,1.29,4.38v1.48c0,2.57-.78,4.63-2.32,6.18-1.55,1.55-3.61,2.32-6.18,2.32h-13.15c-.99,0-1.9-.17-2.72-.52s-1.53-.84-2.1-1.48c-.58-.64-1.03-1.4-1.36-2.27-.33-.87-.5-1.85-.5-2.94v-2.32Z"/>
    </g>
    <polygon class="cls-1" points="895.99 452.68 419.89 452.68 419.89 414.68 920.97 414.68 895.99 452.68"/>
  </g>
  <g>
    <polygon points="420.88 592.68 387.88 592.68 397.88 583.68 430.88 583.68 420.88 592.68"/>
    <polygon points="420.59 608.68 387.59 608.68 397.59 599.68 430.59 599.68 420.59 608.68"/>
  </g>
  <rect x="404.74" y="572.68" width="9" height="36"/>
</svg>